<?xml version="1.0" encoding="UTF-8" standalone="no"?>
<!DOCTYPE svg PUBLIC "-//W3C//DTD SVG 1.1//EN" "http://www.w3.org/Graphics/SVG/1.1/DTD/svg11.dtd">
<svg width="100%" height="100%" viewBox="0 0 955 329" version="1.1" xmlns="http://www.w3.org/2000/svg" xmlns:xlink="http://www.w3.org/1999/xlink" xml:space="preserve" xmlns:serif="http://www.serif.com/" style="fill-rule:evenodd;clip-rule:evenodd;stroke-linejoin:round;stroke-miterlimit:2;">
    <g transform="matrix(1,0,0,1,-1483,-117)">
        <g transform="matrix(0.47698,0,0,0.163574,1483.72,117.96)">
            <rect id="web" x="0" y="0" width="2000" height="2000" style="fill:none;"/>
            <g id="web1" serif:id="web">
                <g id="next-gen" transform="matrix(2.09652,0,0,6.11343,-10554.2,-5112.53)">
                    <g transform="matrix(1,0,0,1,4548.46,-0.329693)">
                        <path d="M505.675,1107.84L505.675,931.839L543.675,931.839L591.675,1015.84L591.675,931.839L627.675,931.839L627.675,1071.84L589.675,1071.84L541.675,987.839L541.675,1107.84L1278.25,1107.84L1278.25,1143.84L541.675,1143.84C521.806,1143.84 505.675,1127.71 505.675,1107.84Z" style="fill:rgb(13,224,231);"/>
                    </g>
                    <g transform="matrix(1,0,0,1,4796.69,301.766)">
                        <path d="M442.445,686.743C437.112,686.743 434.445,689.41 434.445,694.743L434.445,705.743L468.445,705.743L468.445,694.743C468.445,689.41 465.778,686.743 460.445,686.743L442.445,686.743ZM499.445,767.743C473.712,770.41 450.378,771.743 429.445,771.743C420.378,771.743 413.112,769.01 407.645,763.543C402.178,758.076 399.445,750.81 399.445,741.743L399.445,693.743C399.445,683.743 402.278,675.91 407.945,670.243C413.612,664.576 421.445,661.743 431.445,661.743L471.445,661.743C481.445,661.743 489.278,664.576 494.945,670.243C500.612,675.91 503.445,683.743 503.445,693.743L503.445,730.743L434.445,730.743L434.445,738.743C434.445,740.743 435.112,742.41 436.445,743.743C437.778,745.076 439.445,745.743 441.445,745.743C454.645,745.743 473.978,744.743 499.445,742.743L499.445,767.743Z" style="fill:rgb(13,224,231);fill-rule:nonzero;"/>
                    </g>
                    <g transform="matrix(1,0,0,1,4548.46,-0.329693)">
                        <path d="M874.675,959.839L847.675,1001.84L893.675,1071.84L853.675,1071.84L825.675,1027.84L797.675,1071.84L757.675,1071.84L803.675,1001.84L758.675,931.839L798.475,931.839L825.675,975.839L852.675,931.839L1013.68,931.839L1013.68,959.839L971.675,959.839L971.675,1071.84L935.675,1071.84L935.675,959.839L874.675,959.839Z" style="fill:rgb(13,224,231);"/>
                    </g>
                    <g transform="matrix(1,0,0,1,4806.69,301.766)">
                        <path d="M899.445,766.743C868.245,770.076 839.578,771.743 813.445,771.743C800.378,771.743 790.778,768.676 784.645,762.543C778.512,756.41 775.445,746.81 775.445,733.743L775.445,669.743C775.445,655.743 778.612,645.576 784.945,639.243C791.278,632.91 801.445,629.743 815.445,629.743L887.445,629.743L887.445,657.743L823.445,657.743C815.445,657.743 811.445,661.743 811.445,669.743L811.445,733.743C811.445,736.81 812.345,739.243 814.145,741.043C815.945,742.843 818.378,743.743 821.445,743.743C836.778,743.743 850.778,743.41 863.445,742.743L863.445,713.743L837.445,713.743L837.445,689.743L899.445,689.743L899.445,766.743Z" style="fill:rgb(247,112,243);fill-rule:nonzero;"/>
                    </g>
                    <g transform="matrix(1,0,0,1,4806.69,301.766)">
                        <path d="M958.445,686.743C953.112,686.743 950.445,689.41 950.445,694.743L950.445,705.743L984.445,705.743L984.445,694.743C984.445,689.41 981.778,686.743 976.445,686.743L958.445,686.743ZM1015.45,767.743C989.712,770.41 966.378,771.743 945.445,771.743C936.378,771.743 929.112,769.01 923.645,763.543C918.178,758.076 915.445,750.81 915.445,741.743L915.445,693.743C915.445,683.743 918.278,675.91 923.945,670.243C929.612,664.576 937.445,661.743 947.445,661.743L987.445,661.743C997.445,661.743 1005.28,664.576 1010.95,670.243C1016.61,675.91 1019.45,683.743 1019.45,693.743L1019.45,730.743L950.445,730.743L950.445,738.743C950.445,740.743 951.112,742.41 952.445,743.743C953.778,745.076 955.445,745.743 957.445,745.743C970.645,745.743 989.978,744.743 1015.45,742.743L1015.45,767.743Z" style="fill:rgb(247,112,243);fill-rule:nonzero;"/>
                    </g>
                    <g transform="matrix(1,0,0,1,4548.46,-0.329693)">
                        <path d="M1383.67,1015.84L1383.67,895.839L927.233,895.839L927.233,859.839L1383.67,859.839C1403.54,859.839 1419.67,875.97 1419.67,895.839L1419.67,1071.84L1381.67,1071.84L1333.67,987.839L1333.67,1071.84L1297.67,1071.84L1297.67,931.839L1335.67,931.839L1383.67,1015.84Z" style="fill:rgb(247,112,243);"/>
                    </g>
                    <g transform="matrix(0.257143,0,0,0.257143,5744.14,981.73)">
                        <path d="M461.112,489.141L541.112,489.141C554.179,489.141 563.779,492.108 569.912,498.041C576.045,503.974 579.112,513.008 579.112,525.141C579.112,533.141 577.379,539.641 573.912,544.641C570.445,549.641 566.179,553.141 561.112,555.141C571.912,558.074 579.245,565.274 583.112,576.741C584.445,580.874 585.112,585.674 585.112,591.141C585.112,604.208 582.045,613.808 575.912,619.941C569.779,626.074 560.179,629.141 547.112,629.141L461.112,629.141L461.112,489.141ZM549.112,585.141C549.112,577.141 545.112,573.141 537.112,573.141L497.112,573.141L497.112,601.141L537.112,601.141C545.112,601.141 549.112,597.141 549.112,589.141L549.112,585.141ZM543.112,529.141C543.112,521.141 539.112,517.141 531.112,517.141L497.112,517.141L497.112,545.141L531.112,545.141C539.112,545.141 543.112,541.141 543.112,533.141L543.112,529.141Z" style="fill:rgb(13,224,231);fill-rule:nonzero;"/>
                        <path d="M628.112,629.141L589.112,629.141L642.112,489.141L682.112,489.141L735.112,629.141L696.112,629.141L687.112,604.141L637.112,604.141L628.112,629.141ZM646.112,578.141L678.112,578.141L662.112,531.141L646.112,578.141Z" style="fill:rgb(13,224,231);fill-rule:nonzero;"/>
                        <path d="M745.112,489.141L829.112,489.141C843.112,489.141 853.279,492.308 859.612,498.641C865.945,504.974 869.112,515.141 869.112,529.141L869.112,547.141C869.112,558.208 867.279,566.808 863.612,572.941C859.945,579.074 854.112,583.141 846.112,585.141L871.112,629.141L832.112,629.141L809.112,587.141L781.112,587.141L781.112,629.141L745.112,629.141L745.112,489.141ZM833.112,529.141C833.112,521.141 829.112,517.141 821.112,517.141L781.112,517.141L781.112,559.141L821.112,559.141C829.112,559.141 833.112,555.141 833.112,547.141L833.112,529.141Z" style="fill:rgb(13,224,231);fill-rule:nonzero;"/>
                    </g>
                    <g transform="matrix(2.53521,0,0,2.53521,3660.92,-700.306)">
                        <path d="M561.946,628.961C558.826,629.294 555.959,629.461 553.346,629.461C552.039,629.461 551.079,629.154 550.466,628.541C549.853,627.927 549.546,626.967 549.546,625.661L549.546,619.261C549.546,617.861 549.863,616.844 550.496,616.211C551.129,615.577 552.146,615.261 553.546,615.261L560.746,615.261L560.746,618.061L554.346,618.061C553.546,618.061 553.146,618.461 553.146,619.261L553.146,625.661C553.146,625.967 553.236,626.211 553.416,626.391C553.596,626.571 553.839,626.661 554.146,626.661C555.679,626.661 557.079,626.627 558.346,626.561L558.346,623.661L555.746,623.661L555.746,621.261L561.946,621.261L561.946,628.961Z" style="fill:rgb(247,112,243);fill-rule:nonzero;"/>
                        <path d="M566.446,629.261L562.546,629.261L567.846,615.261L571.846,615.261L577.146,629.261L573.246,629.261L572.346,626.761L567.346,626.761L566.446,629.261ZM568.246,624.161L571.446,624.161L569.846,619.461L568.246,624.161Z" style="fill:rgb(247,112,243);fill-rule:nonzero;"/>
                        <path d="M590.146,621.461L587.346,626.461L584.546,626.461L581.746,621.461L581.746,629.261L578.146,629.261L578.146,615.261L581.946,615.261L585.946,622.661L589.946,615.261L593.746,615.261L593.746,629.261L590.146,629.261L590.146,621.461Z" style="fill:rgb(247,112,243);fill-rule:nonzero;"/>
                        <path d="M607.246,629.261L596.146,629.261L596.146,615.261L607.246,615.261L607.246,618.061L599.746,618.061L599.746,620.761L605.646,620.761L605.646,623.561L599.746,623.561L599.746,626.461L607.246,626.461L607.246,629.261Z" style="fill:rgb(247,112,243);fill-rule:nonzero;"/>
                        <path d="M626.246,629.061C623.219,629.327 620.486,629.461 618.046,629.461C616.739,629.461 615.779,629.154 615.166,628.541C614.553,627.927 614.246,626.967 614.246,625.661C614.246,624.647 614.499,623.807 615.006,623.141C615.406,622.607 615.953,622.247 616.646,622.061C616.046,621.861 615.563,621.511 615.196,621.011C614.829,620.511 614.646,619.861 614.646,619.061L614.646,618.861C614.646,617.647 614.953,616.744 615.566,616.151C616.179,615.557 617.139,615.261 618.446,615.261L624.846,615.261L624.846,618.061L619.446,618.061C618.646,618.061 618.246,618.461 618.246,619.261L618.246,619.861C618.246,620.661 618.646,621.061 619.446,621.061L622.646,621.061L622.946,619.461L626.246,619.461L626.246,621.061L627.846,621.061L627.846,623.861L626.246,623.861L626.246,629.061ZM618.846,626.661C620.313,626.661 621.579,626.627 622.646,626.561L622.646,623.861L619.046,623.861C618.246,623.861 617.846,624.261 617.846,625.061L617.846,625.661C617.846,625.967 617.936,626.211 618.116,626.391C618.296,626.571 618.539,626.661 618.846,626.661Z" style="fill:rgb(247,112,243);fill-rule:nonzero;"/>
                        <path d="M637.746,629.261L633.846,629.261L639.146,615.261L643.146,615.261L648.446,629.261L644.546,629.261L643.646,626.761L638.646,626.761L637.746,629.261ZM639.546,624.161L642.746,624.161L641.146,619.461L639.546,624.161Z" style="fill:rgb(247,112,243);fill-rule:nonzero;"/>
                        <path d="M661.646,629.261L657.846,629.261L653.046,620.861L653.046,629.261L649.446,629.261L649.446,615.261L653.246,615.261L658.046,623.661L658.046,615.261L661.646,615.261L661.646,629.261Z" style="fill:rgb(247,112,243);fill-rule:nonzero;"/>
                        <path d="M670.646,629.261L663.446,629.261L663.446,626.461L665.246,626.461L665.246,618.061L663.446,618.061L663.446,615.261L670.646,615.261L670.646,618.061L668.846,618.061L668.846,626.461L670.646,626.461L670.646,629.261Z" style="fill:rgb(247,112,243);fill-rule:nonzero;"/>
                        <path d="M684.446,621.461L681.646,626.461L678.846,626.461L676.046,621.461L676.046,629.261L672.446,629.261L672.446,615.261L676.246,615.261L680.246,622.661L684.246,615.261L688.046,615.261L688.046,629.261L684.446,629.261L684.446,621.461Z" style="fill:rgb(247,112,243);fill-rule:nonzero;"/>
                        <path d="M701.546,629.261L690.446,629.261L690.446,615.261L701.546,615.261L701.546,618.061L694.046,618.061L694.046,620.761L699.946,620.761L699.946,623.561L694.046,623.561L694.046,626.461L701.546,626.461L701.546,629.261Z" style="fill:rgb(247,112,243);fill-rule:nonzero;"/>
                    </g>
                </g>
            </g>
        </g>
    </g>
</svg>
